<svg width="24" height="25" viewBox="0 0 24 25" fill="none" xmlns="http://www.w3.org/2000/svg">
<path d="M8.5 9.36365H15.5C16.6046 9.36365 17.5 10.2591 17.5 11.3636V15.3636C17.5 16.4682 16.6046 17.3636 15.5 17.3636H8.5C7.39543 17.3636 6.5 16.4682 6.5 15.3636V11.3636C6.5 10.2591 7.39543 9.36365 8.5 9.36365Z" stroke="#222222" stroke-linecap="round" stroke-linejoin="round"/>
<path d="M6.5 11.3636H4.82456C3.68097 11.3636 2.87345 12.484 3.23509 13.5689V13.5689C3.40185 14.0692 3.79444 14.4618 4.29473 14.6286L6.5 15.3636" stroke="#222222" stroke-linecap="round" stroke-linejoin="round"/>
<path d="M17.5 11.3636H19.1754C20.319 11.3636 21.1265 12.484 20.7649 13.5689V13.5689C20.5981 14.0692 20.2056 14.4618 19.7053 14.6286L17.5 15.3636" stroke="#222222" stroke-linecap="round" stroke-linejoin="round"/>
<path d="M12 11.3636V15.3636" stroke="#222222" stroke-linecap="round" stroke-linejoin="round"/>
<path d="M14 13.3636L10 13.3636" stroke="#222222" stroke-linecap="round" stroke-linejoin="round"/>
</svg>
