<svg width="20" height="20" viewBox="0 0 20 20" fill="none" xmlns="http://www.w3.org/2000/svg">
<g clip-path="url(#clip0_160_2751)">
<path d="M12.1428 4.99993V3.57136C12.1428 3.19248 11.9923 2.82912 11.7244 2.56121C11.4565 2.29331 11.0932 2.14279 10.7143 2.14279H9.28571" stroke="#969696" stroke-linecap="round" stroke-linejoin="round"/>
<path d="M5.71429 14.9999H2.14287C1.76398 14.9999 1.40062 14.8494 1.13271 14.5815C0.864804 14.3137 0.714294 13.9503 0.714294 13.5714V3.57136C0.714294 3.19248 0.864804 2.82912 1.13271 2.56121C1.40062 2.29331 1.76398 2.14279 2.14287 2.14279H3.57144" stroke="#969696" stroke-linecap="round" stroke-linejoin="round"/>
<path d="M17.8571 7.85707H10.7143C9.92531 7.85707 9.28571 8.49667 9.28571 9.28564V17.8571C9.28571 18.6461 9.92531 19.2856 10.7143 19.2856H17.8571C18.6461 19.2856 19.2857 18.6461 19.2857 17.8571V9.28564C19.2857 8.49667 18.6461 7.85707 17.8571 7.85707Z" stroke="#969696" stroke-linecap="round" stroke-linejoin="round"/>
<path d="M9.64287 0.714218H3.21429L3.80001 3.0285C3.83569 3.1834 3.92302 3.32155 4.04765 3.4202C4.17228 3.51886 4.32677 3.57217 4.48572 3.57136H8.37144C8.5304 3.57217 8.68488 3.51886 8.80951 3.4202C8.93414 3.32155 9.02147 3.1834 9.05715 3.0285L9.64287 0.714218Z" stroke="#969696" stroke-linecap="round" stroke-linejoin="round"/>
<path d="M12.1429 12.1428H16.4286" stroke="#969696" stroke-linecap="round" stroke-linejoin="round"/>
<path d="M12.1429 14.9999H16.4286" stroke="#969696" stroke-linecap="round" stroke-linejoin="round"/>
</g>
<defs>
<clipPath id="clip0_160_2751">
<rect width="20" height="20" fill="white"/>
</clipPath>
</defs>
</svg>
