<svg width="25" height="24" viewBox="0 0 25 24" fill="none" xmlns="http://www.w3.org/2000/svg">
<path d="M11.9202 6C11.3702 6 10.8995 5.804 10.5082 5.412C10.1162 5.02067 9.92017 4.55 9.92017 4C9.92017 3.45 10.1162 2.979 10.5082 2.587C10.8995 2.19567 11.3702 2 11.9202 2C12.4702 2 12.9412 2.19567 13.3332 2.587C13.7245 2.979 13.9202 3.45 13.9202 4C13.9202 4.55 13.7245 5.02067 13.3332 5.412C12.9412 5.804 12.4702 6 11.9202 6ZM10.9202 22V17H8.92017V10C8.92017 9.16667 9.21183 8.45833 9.79517 7.875C10.3785 7.29167 11.0868 7 11.9202 7C12.7535 7 13.4618 7.29167 14.0452 7.875C14.6285 8.45833 14.9202 9.16667 14.9202 10C15.5202 10.25 16.0035 10.65 16.3702 11.2C16.7368 11.75 16.9202 12.35 16.9202 13V17H13.9202V22H10.9202Z" fill="black"/>
</svg>
