<svg width="20" height="20" viewBox="0 0 20 20" fill="none" xmlns="http://www.w3.org/2000/svg">
<path d="M7.14284 9.28571C9.11528 9.28571 10.7143 7.68672 10.7143 5.71428C10.7143 3.74184 9.11528 2.14285 7.14284 2.14285C5.1704 2.14285 3.57141 3.74184 3.57141 5.71428C3.57141 7.68672 5.1704 9.28571 7.14284 9.28571Z" stroke="#969696" stroke-linecap="round" stroke-linejoin="round"/>
<path d="M0.714294 19.2857H7.14287H13.5714V18.5113C13.5601 17.4224 13.2729 16.3541 12.7368 15.4064C12.2006 14.4586 11.433 13.6621 10.5056 13.0914C9.57822 12.5207 8.52131 12.1944 7.43361 12.1429C7.33664 12.1383 7.2397 12.1359 7.14287 12.1357C7.04604 12.1359 6.9491 12.1383 6.85212 12.1429C5.76442 12.1944 4.70751 12.5207 3.78011 13.0914C2.85272 13.6621 2.08511 14.4586 1.54897 15.4064C1.01283 16.3541 0.725667 17.4224 0.714294 18.5113V19.2857Z" stroke="#969696" stroke-linecap="round" stroke-linejoin="round"/>
<path d="M12.8572 9.28571C14.8296 9.28571 16.4286 7.68672 16.4286 5.71428C16.4286 3.74184 14.8296 2.14285 12.8572 2.14285" stroke="#969696" stroke-linecap="round" stroke-linejoin="round"/>
<path d="M16.4286 19.2859H19.2857V18.5113C19.2743 17.4224 18.9871 16.3541 18.451 15.4064C17.9148 14.4586 17.1473 13.6622 16.2198 13.0915C15.6204 12.7225 14.9667 12.4557 14.2857 12.2993" stroke="#969696" stroke-linecap="round" stroke-linejoin="round"/>
</svg>
