<svg width="20" height="20" viewBox="0 0 20 20" fill="none" xmlns="http://www.w3.org/2000/svg">
<path d="M10 5.17856C4.01817 5.17856 1.50671 10.558 1.50671 10.6696C1.50671 10.7812 4.01817 16.1607 10 16.1607C15.9819 16.1607 18.4933 10.7812 18.4933 10.6696C18.4933 10.558 15.9819 5.17856 10 5.17856Z" stroke="#969696" stroke-linecap="round" stroke-linejoin="round"/>
<path d="M3.09852 8.30355L0.871948 6.077" stroke="#969696" stroke-linecap="round" stroke-linejoin="round"/>
<path d="M7.33552 5.56905L6.42792 2.63287" stroke="#969696" stroke-linecap="round" stroke-linejoin="round"/>
<path d="M16.9016 8.30355L19.128 6.077" stroke="#969696" stroke-linecap="round" stroke-linejoin="round"/>
<path d="M12.6646 5.56905L13.5722 2.63287" stroke="#969696" stroke-linecap="round" stroke-linejoin="round"/>
<path d="M9.44582 13.0902C10.7825 13.3963 12.1142 12.5608 12.4202 11.2242C12.7263 9.88755 11.8909 8.55585 10.5542 8.24977C9.2176 7.94369 7.8859 8.77912 7.57982 10.1158C7.27374 11.4524 8.10917 12.7841 9.44582 13.0902Z" stroke="#969696" stroke-linecap="round" stroke-linejoin="round"/>
</svg>
