<svg width="20" height="20" viewBox="0 0 20 20" fill="none" xmlns="http://www.w3.org/2000/svg">
<path d="M13.5714 2.14285H15.7143C16.0931 2.14285 16.4565 2.29337 16.7244 2.56127C16.9923 2.82918 17.1428 3.19254 17.1428 3.57142V17.8571C17.1428 18.236 16.9923 18.5994 16.7244 18.8673C16.4565 19.1351 16.0931 19.2857 15.7143 19.2857H4.28569C3.9068 19.2857 3.54345 19.1351 3.27553 18.8673C3.00763 18.5994 2.85712 18.236 2.85712 17.8571V3.57142C2.85712 3.19254 3.00763 2.82918 3.27553 2.56127C3.54345 2.29337 3.9068 2.14285 4.28569 2.14285H6.42855" stroke="#969696" stroke-linecap="round" stroke-linejoin="round"/>
<path d="M12.1428 0.714279H7.8571C7.06813 0.714279 6.42853 1.35387 6.42853 2.14285V2.85714C6.42853 3.64611 7.06813 4.28571 7.8571 4.28571H12.1428C12.9318 4.28571 13.5714 3.64611 13.5714 2.85714V2.14285C13.5714 1.35387 12.9318 0.714279 12.1428 0.714279Z" stroke="#969696" stroke-linecap="round" stroke-linejoin="round"/>
<path d="M9.00389 7.44279C8.66512 7.44279 8.39049 7.71742 8.39049 8.05621V9.78144H6.66528C6.32651 9.78144 6.05188 10.0561 6.05188 10.3948V12.3884C6.05188 12.7272 6.32651 13.0018 6.66528 13.0018H8.39049V14.727C8.39049 15.0657 8.66512 15.3404 9.00389 15.3404H10.9975C11.3362 15.3404 11.6109 15.0657 11.6109 14.727V13.0018H13.3361C13.6749 13.0018 13.9495 12.7272 13.9495 12.3884V10.3948C13.9495 10.0561 13.6749 9.78144 13.3361 9.78144H11.6109V8.05621C11.6109 7.71742 11.3362 7.44279 10.9975 7.44279H9.00389Z" stroke="#969696" stroke-linecap="round" stroke-linejoin="round"/>
</svg>
